<svg width="26" height="26" viewBox="0 0 26 26" fill="none" xmlns="http://www.w3.org/2000/svg">
<path d="M16.0645 10.6475C16.8771 9.83481 17.3337 8.7326 17.3337 7.58333C17.3337 6.43406 16.8771 5.33186 16.0645 4.5192C15.2518 3.70655 14.1496 3.25 13.0003 3.25C11.8511 3.25 10.7489 3.70655 9.9362 4.5192C9.12354 5.33186 8.66699 6.43406 8.66699 7.58333C8.66699 8.7326 9.12354 9.83481 9.9362 10.6475C10.7489 11.4601 11.8511 11.9167 13.0003 11.9167C14.1496 11.9167 15.2518 11.4601 16.0645 10.6475Z" stroke="#09090B" stroke-width="2" stroke-linecap="round" stroke-linejoin="round"/>
<path d="M7.6381 17.3878C9.06025 15.9656 10.9891 15.1667 13.0003 15.1667C15.0116 15.1667 16.9404 15.9656 18.3626 17.3878C19.7847 18.8099 20.5837 20.7388 20.5837 22.75H5.41699C5.41699 20.7388 6.21595 18.8099 7.6381 17.3878Z" stroke="#09090B" stroke-width="2" stroke-linecap="round" stroke-linejoin="round"/>
</svg>
