<svg width="64" height="64" viewBox="0 0 64 64" fill="none" xmlns="http://www.w3.org/2000/svg">
<g clip-path="url(#clip0_1349_11094)">
<path d="M61.32 2.66016H4V62.6602H61.32V2.66016Z" fill="white"/>
<path d="M13.2031 15.24H13.7431C17.2831 15.24 18.2231 13.4 18.3031 12H21.3231V30.66H17.6431V17.8H13.2031V15.24Z" fill="#C40119"/>
<path d="M0 0V64H64V0H0ZM55.84 55.84H51.16L53.36 49.1C55.8 43.1 53.92 33.22 48.34 26.24C47.2654 24.1416 46.414 21.9362 45.8 19.66C45.4795 22.0316 45.5742 24.4409 46.08 26.78C47.08 33.2 44.18 37.04 40.54 40.22C42.54 32.8 40.88 25.44 34.04 16.9C32.5434 15.338 31.4756 13.4159 30.94 11.32C30.3403 13.4 30.3058 15.6022 30.84 17.7C33.22 33.3 28.44 39.02 18.02 43.48L14.84 44.48C14.84 44.02 15.16 42.86 15.28 42.18C15.4556 41.4068 15.7969 40.681 16.2803 40.0525C16.7637 39.4241 17.3778 38.9081 18.08 38.54C15.8028 38.8106 13.7179 39.9498 12.26 41.72C10.26 44.14 10.26 46.88 8.26 48.1V8.1H55.84V55.84Z" fill="#C40119"/>
<path d="M42.7403 42.0596V60.8796H23.8203V34.0996H34.8403L42.7403 42.0596Z" fill="white" stroke="#C40119" stroke-width="0.52"/>
<path d="M26.7412 38.4805H25.7812V40.1405H26.7412V38.4805Z" fill="#C73B19"/>
<path d="M28.5381 38.4805H27.5781V40.1405H28.5381V38.4805Z" fill="#C73B19"/>
<path d="M30.3428 38.4805H29.3828V40.1405H30.3428V38.4805Z" fill="#C73B19"/>
<path d="M32.1397 38.4805H31.1797V40.1405H32.1397V38.4805Z" fill="#C73B19"/>
<path d="M33.9409 38.4805H32.9609V40.1405H33.9409V38.4805Z" fill="#C73B19"/>
<path d="M35.7413 38.4805H34.7812V40.1405H35.7413V38.4805Z" fill="#C73B19"/>
<path d="M37.5381 38.4805H36.5781V40.1405H37.5381V38.4805Z" fill="#C73B19"/>
<path d="M39.3428 38.4805H38.3828V40.1405H39.3428V38.4805Z" fill="#C73B19"/>
<path d="M26.7412 41.7793H25.7812V43.4393H26.7412V41.7793Z" fill="#C73B19"/>
<path d="M28.5381 41.7793H27.5781V43.4393H28.5381V41.7793Z" fill="#C73B19"/>
<path d="M30.3428 41.7793H29.3828V43.4393H30.3428V41.7793Z" fill="#C73B19"/>
<path d="M32.1397 41.7793H31.1797V43.4393H32.1397V41.7793Z" fill="#C73B19"/>
<path d="M33.9409 41.7793H32.9609V43.4393H33.9409V41.7793Z" fill="#C73B19"/>
<path d="M35.7413 41.7793H34.7812V43.4393H35.7413V41.7793Z" fill="#C73B19"/>
<path d="M37.5381 41.7793H36.5781V43.4393H37.5381V41.7793Z" fill="#C73B19"/>
<path d="M39.3428 41.7793H38.3828V43.4393H39.3428V41.7793Z" fill="#C73B19"/>
<path d="M41.1397 41.7793H40.1797V43.4393H41.1397V41.7793Z" fill="#C73B19"/>
<path d="M26.7412 45.0605H25.7812V46.7205H26.7412V45.0605Z" fill="#C73B19"/>
<path d="M28.5381 45.0605H27.5781V46.7205H28.5381V45.0605Z" fill="#C73B19"/>
<path d="M30.3428 45.0605H29.3828V46.7205H30.3428V45.0605Z" fill="#C73B19"/>
<path d="M32.1397 45.0605H31.1797V46.7205H32.1397V45.0605Z" fill="#C73B19"/>
<path d="M33.9409 45.0605H32.9609V46.7205H33.9409V45.0605Z" fill="#C73B19"/>
<path d="M35.7413 45.0605H34.7812V46.7205H35.7413V45.0605Z" fill="#C73B19"/>
<path d="M37.5381 45.0605H36.5781V46.7205H37.5381V45.0605Z" fill="#C73B19"/>
<path d="M39.3428 45.0605H38.3828V46.7205H39.3428V45.0605Z" fill="#C73B19"/>
<path d="M41.1397 45.0605H40.1797V46.7205H41.1397V45.0605Z" fill="#C73B19"/>
<path d="M26.7412 48.3594H25.7812V50.0194H26.7412V48.3594Z" fill="#C73B19"/>
<path d="M28.5381 48.3594H27.5781V50.0194H28.5381V48.3594Z" fill="#C73B19"/>
<path d="M30.3428 48.3594H29.3828V50.0194H30.3428V48.3594Z" fill="#C73B19"/>
<path d="M32.1397 48.3594H31.1797V50.0194H32.1397V48.3594Z" fill="#C73B19"/>
<path d="M33.9409 48.3594H32.9609V50.0194H33.9409V48.3594Z" fill="#C73B19"/>
<path d="M35.7413 48.3594H34.7812V50.0194H35.7413V48.3594Z" fill="#C73B19"/>
<path d="M37.5381 48.3594H36.5781V50.0194H37.5381V48.3594Z" fill="#C73B19"/>
<path d="M39.3428 48.3594H38.3828V50.0194H39.3428V48.3594Z" fill="#C73B19"/>
<path d="M41.1397 48.3594H40.1797V50.0194H41.1397V48.3594Z" fill="#C73B19"/>
<path d="M26.7412 51.6602H25.7812V53.3202H26.7412V51.6602Z" fill="#C73B19"/>
<path d="M28.5381 51.6602H27.5781V53.3202H28.5381V51.6602Z" fill="#C73B19"/>
<path d="M30.3428 51.6602H29.3828V53.3202H30.3428V51.6602Z" fill="#C73B19"/>
<path d="M32.1397 51.6602H31.1797V53.3202H32.1397V51.6602Z" fill="#C73B19"/>
<path d="M33.9409 51.6602H32.9609V53.3202H33.9409V51.6602Z" fill="#C73B19"/>
<path d="M35.7413 51.6602H34.7812V53.3202H35.7413V51.6602Z" fill="#C73B19"/>
<path d="M34.8984 34.0605V42.0405H42.8184" fill="white"/>
<path d="M34.8984 34.0605V42.0405H42.8184" stroke="#C40119" stroke-width="0.52"/>
</g>
<defs>
<clipPath id="clip0_1349_11094">
<rect width="64" height="64" fill="white"/>
</clipPath>
</defs>
</svg>
