<svg width="64" height="64" viewBox="0 0 64 64" fill="none" xmlns="http://www.w3.org/2000/svg">
<g clip-path="url(#clip0_1349_11034)">
<path d="M32 64C38.329 64 44.5159 62.1232 49.7782 58.607C55.0406 55.0908 59.1421 50.0931 61.5641 44.2459C63.9861 38.3986 64.6199 31.9645 63.3851 25.7571C62.1504 19.5497 59.1027 13.8479 54.6274 9.3726C50.1521 4.89732 44.4503 1.84961 38.2429 0.614885C32.0355 -0.619842 25.6014 0.013865 19.7541 2.43587C13.9069 4.85787 8.90918 8.95939 5.39297 14.2218C1.87677 19.4841 0 25.671 0 32C0 40.4869 3.37142 48.6263 9.37258 54.6274C15.3737 60.6286 23.5131 64 32 64Z" fill="#C40119"/>
<path d="M9.60122 42.1999C11.4412 41.0799 11.4412 38.5599 13.2012 36.3399C14.5567 34.6986 16.5037 33.6568 18.6212 33.4399C17.9662 33.7703 17.392 34.2408 16.9392 34.818C16.4864 35.3952 16.1662 36.065 16.0012 36.7799C15.8812 37.4199 15.6612 38.4599 15.5812 38.8999L18.5812 37.9999C28.1612 33.9999 32.5812 28.6399 30.3612 14.2999C29.8824 12.3713 29.9168 10.351 30.4612 8.43986C30.956 10.365 31.9414 12.129 33.3212 13.5599C39.6012 21.3999 41.0412 28.1799 39.3212 34.9999C42.6612 32.0799 45.3212 28.5399 44.4012 22.6399C43.9173 20.4603 43.8225 18.2124 44.1212 15.9999C44.6857 18.0774 45.4701 20.0887 46.4612 21.9999C51.5812 28.4199 53.3212 37.4199 51.0812 43.0199L48.8412 49.9999C52.1424 46.9132 54.5302 42.9774 55.7431 38.6238C56.956 34.2702 56.9471 29.6667 55.7174 25.3178C54.4878 20.9689 52.0848 17.0423 48.7718 13.9684C45.4587 10.8945 41.3635 8.79183 36.9349 7.89077C32.5062 6.98972 27.9149 7.32507 23.6642 8.86007C19.4134 10.3951 15.6672 13.0705 12.836 16.5932C10.0048 20.1159 8.19785 24.3499 7.61317 28.8313C7.02848 33.3128 7.68861 37.8687 9.52122 41.9999" fill="white"/>
<path d="M13.4991 18.9395C15.4991 18.9395 16.4591 20.9395 16.4591 25.2195C16.4591 29.4995 15.5191 31.5195 13.4991 31.5195C11.4791 31.5195 10.5391 29.5195 10.5391 25.2195C10.5391 20.9195 11.4791 18.9395 13.4991 18.9395ZM13.4991 29.5795C14.4591 29.5795 14.7391 28.3795 14.7391 25.2195C14.7391 22.0595 14.4591 20.8795 13.4991 20.8795C12.5391 20.8795 12.2791 22.0595 12.2791 25.2195C12.2791 28.3795 12.5391 29.5795 13.4991 29.5795Z" fill="#C40119"/>
<path d="M19.2219 31.1802H17.4219V28.6602H19.2219V31.1802Z" fill="#C40119"/>
<path d="M22.5991 20.68C22.8677 20.3674 23.2029 20.1188 23.5802 19.9527C23.9574 19.7866 24.3671 19.7071 24.7791 19.72C26.4191 19.72 28.4791 21.36 28.4791 25.36C28.4791 27.76 27.6391 31.64 24.0391 31.64C22.0391 31.64 20.1791 30.02 20.0391 26.5H22.4591C22.4591 27.92 23.0791 28.88 24.1591 28.88C25.2391 28.88 25.9791 27.48 25.9791 25.62C25.9791 23.76 25.4591 22.48 24.1991 22.48C23.8242 22.4668 23.4565 22.5857 23.1604 22.816C22.8643 23.0464 22.6585 23.3734 22.5791 23.74L20.4191 23.6L21.2791 14H27.9991V16.9H23.0191L22.5991 20.68Z" fill="#C40119"/>
<path d="M40.8581 43.8995V61.5595H23.0781V36.4395H33.4181L40.8581 43.8995Z" fill="white"/>
<path d="M25.8375 40.5605H24.9375V42.1005H25.8375V40.5605Z" fill="#C73B19"/>
<path d="M27.5172 40.5605H26.6172V42.1005H27.5172V40.5605Z" fill="#C73B19"/>
<path d="M29.1969 40.5605H28.2969V42.1005H29.1969V40.5605Z" fill="#C73B19"/>
<path d="M30.9 40.5605H30V42.1005H30.9V40.5605Z" fill="#C73B19"/>
<path d="M32.5797 40.5605H31.6797V42.1005H32.5797V40.5605Z" fill="#C73B19"/>
<path d="M34.2594 40.5605H33.3594V42.1005H34.2594V40.5605Z" fill="#C73B19"/>
<path d="M35.9625 40.5605H35.0625V42.1005H35.9625V40.5605Z" fill="#C73B19"/>
<path d="M37.6422 40.5605H36.7422V42.1005H37.6422V40.5605Z" fill="#C73B19"/>
<path d="M25.8375 43.6406H24.9375V45.1806H25.8375V43.6406Z" fill="#C73B19"/>
<path d="M27.5172 43.6406H26.6172V45.1806H27.5172V43.6406Z" fill="#C73B19"/>
<path d="M29.1969 43.6406H28.2969V45.1806H29.1969V43.6406Z" fill="#C73B19"/>
<path d="M30.9 43.6406H30V45.1806H30.9V43.6406Z" fill="#C73B19"/>
<path d="M32.5797 43.6406H31.6797V45.1806H32.5797V43.6406Z" fill="#C73B19"/>
<path d="M34.2594 43.6406H33.3594V45.1806H34.2594V43.6406Z" fill="#C73B19"/>
<path d="M35.9625 43.6406H35.0625V45.1806H35.9625V43.6406Z" fill="#C73B19"/>
<path d="M37.6422 43.6406H36.7422V45.1806H37.6422V43.6406Z" fill="#C73B19"/>
<path d="M39.3375 43.6406H38.4375V45.1806H39.3375V43.6406Z" fill="#C73B19"/>
<path d="M25.8375 46.7402H24.9375V48.2802H25.8375V46.7402Z" fill="#C73B19"/>
<path d="M27.5172 46.7402H26.6172V48.2802H27.5172V46.7402Z" fill="#C73B19"/>
<path d="M29.1969 46.7402H28.2969V48.2802H29.1969V46.7402Z" fill="#C73B19"/>
<path d="M30.9 46.7402H30V48.2802H30.9V46.7402Z" fill="#C73B19"/>
<path d="M32.5797 46.7402H31.6797V48.2802H32.5797V46.7402Z" fill="#C73B19"/>
<path d="M34.2594 46.7402H33.3594V48.2802H34.2594V46.7402Z" fill="#C73B19"/>
<path d="M35.9625 46.7402H35.0625V48.2802H35.9625V46.7402Z" fill="#C73B19"/>
<path d="M37.6422 46.7402H36.7422V48.2802H37.6422V46.7402Z" fill="#C73B19"/>
<path d="M39.3375 46.7402H38.4375V48.2802H39.3375V46.7402Z" fill="#C73B19"/>
<path d="M25.8375 49.8203H24.9375V51.3603H25.8375V49.8203Z" fill="#C73B19"/>
<path d="M27.5172 49.8203H26.6172V51.3603H27.5172V49.8203Z" fill="#C73B19"/>
<path d="M29.1969 49.8203H28.2969V51.3603H29.1969V49.8203Z" fill="#C73B19"/>
<path d="M30.9 49.8203H30V51.3603H30.9V49.8203Z" fill="#C73B19"/>
<path d="M32.5797 49.8203H31.6797V51.3603H32.5797V49.8203Z" fill="#C73B19"/>
<path d="M34.2594 49.8203H33.3594V51.3603H34.2594V49.8203Z" fill="#C73B19"/>
<path d="M35.9625 49.8203H35.0625V51.3603H35.9625V49.8203Z" fill="#C73B19"/>
<path d="M37.6422 49.8203H36.7422V51.3603H37.6422V49.8203Z" fill="#C73B19"/>
<path d="M39.3375 49.8203H38.4375V51.3603H39.3375V49.8203Z" fill="#C73B19"/>
<path d="M25.8375 52.9199H24.9375V54.4599H25.8375V52.9199Z" fill="#C73B19"/>
<path d="M27.5172 52.9199H26.6172V54.4599H27.5172V52.9199Z" fill="#C73B19"/>
<path d="M29.1969 52.9199H28.2969V54.4599H29.1969V52.9199Z" fill="#C73B19"/>
<path d="M30.9 52.9199H30V54.4599H30.9V52.9199Z" fill="#C73B19"/>
<path d="M32.5797 52.9199H31.6797V54.4599H32.5797V52.9199Z" fill="#C73B19"/>
<path d="M34.2594 52.9199H33.3594V54.4599H34.2594V52.9199Z" fill="#C73B19"/>
<path d="M33.5 36.4199V43.8799H40.92" fill="white"/>
<path d="M33.5 36.4199V43.8799H40.92" stroke="#C40119" stroke-width="0.19"/>
</g>
<defs>
<clipPath id="clip0_1349_11034">
<rect width="64" height="64" fill="white"/>
</clipPath>
</defs>
</svg>
